<mxfile host="app.diagrams.net" agent="Mozilla/5.0 (Windows NT 10.0; Win64; x64) AppleWebKit/537.36 (KHTML, like Gecko) Chrome/130.0.0.0 Safari/537.36 Edg/130.0.0.0" version="24.8.6">
  <diagram name="第 1 页" id="DDxnVz1bjOuHQt86u8dM">
    <mxGraphModel dx="1085" dy="631" grid="1" gridSize="10" guides="1" tooltips="1" connect="1" arrows="1" fold="1" page="1" pageScale="1" pageWidth="827" pageHeight="1169" math="0" shadow="0">
      <root>
        <mxCell id="0" />
        <mxCell id="1" parent="0" />
        <mxCell id="KcOPCWE61-_cXgrTqT9o-6" style="edgeStyle=orthogonalEdgeStyle;rounded=0;orthogonalLoop=1;jettySize=auto;html=1;exitX=1;exitY=0.5;exitDx=0;exitDy=0;entryX=0;entryY=0.5;entryDx=0;entryDy=0;strokeWidth=2;" edge="1" parent="1" source="KcOPCWE61-_cXgrTqT9o-1" target="KcOPCWE61-_cXgrTqT9o-2">
          <mxGeometry relative="1" as="geometry" />
        </mxCell>
        <mxCell id="KcOPCWE61-_cXgrTqT9o-7" style="edgeStyle=orthogonalEdgeStyle;rounded=0;orthogonalLoop=1;jettySize=auto;html=1;exitX=1;exitY=0.5;exitDx=0;exitDy=0;entryX=0;entryY=0.5;entryDx=0;entryDy=0;strokeWidth=2;" edge="1" parent="1" source="KcOPCWE61-_cXgrTqT9o-1" target="KcOPCWE61-_cXgrTqT9o-3">
          <mxGeometry relative="1" as="geometry" />
        </mxCell>
        <mxCell id="KcOPCWE61-_cXgrTqT9o-1" value="&lt;font face=&quot;微软雅黑&quot; style=&quot;font-size: 24px;&quot;&gt;通用对抗扰动&lt;/font&gt;" style="rounded=0;whiteSpace=wrap;html=1;strokeColor=#006633;strokeWidth=2;" vertex="1" parent="1">
          <mxGeometry x="120" y="120" width="150" height="40" as="geometry" />
        </mxCell>
        <mxCell id="KcOPCWE61-_cXgrTqT9o-8" style="edgeStyle=orthogonalEdgeStyle;rounded=0;orthogonalLoop=1;jettySize=auto;html=1;exitX=1;exitY=0.5;exitDx=0;exitDy=0;entryX=0;entryY=0.5;entryDx=0;entryDy=0;strokeWidth=2;" edge="1" parent="1" source="KcOPCWE61-_cXgrTqT9o-2" target="KcOPCWE61-_cXgrTqT9o-4">
          <mxGeometry relative="1" as="geometry" />
        </mxCell>
        <mxCell id="KcOPCWE61-_cXgrTqT9o-2" value="&lt;font face=&quot;微软雅黑&quot; style=&quot;font-size: 24px;&quot;&gt;输入数据转换&lt;/font&gt;" style="rounded=0;whiteSpace=wrap;html=1;strokeColor=#006633;strokeWidth=2;" vertex="1" parent="1">
          <mxGeometry x="360" y="40" width="150" height="40" as="geometry" />
        </mxCell>
        <mxCell id="KcOPCWE61-_cXgrTqT9o-9" style="edgeStyle=orthogonalEdgeStyle;rounded=0;orthogonalLoop=1;jettySize=auto;html=1;exitX=1;exitY=0.5;exitDx=0;exitDy=0;entryX=0;entryY=0.5;entryDx=0;entryDy=0;strokeWidth=2;" edge="1" parent="1" source="KcOPCWE61-_cXgrTqT9o-3" target="KcOPCWE61-_cXgrTqT9o-4">
          <mxGeometry relative="1" as="geometry" />
        </mxCell>
        <mxCell id="KcOPCWE61-_cXgrTqT9o-3" value="&lt;font face=&quot;微软雅黑&quot; style=&quot;font-size: 24px;&quot;&gt;深度模型集成&lt;/font&gt;" style="rounded=0;whiteSpace=wrap;html=1;strokeColor=#006633;strokeWidth=2;" vertex="1" parent="1">
          <mxGeometry x="360" y="200" width="150" height="40" as="geometry" />
        </mxCell>
        <mxCell id="KcOPCWE61-_cXgrTqT9o-10" style="edgeStyle=orthogonalEdgeStyle;rounded=0;orthogonalLoop=1;jettySize=auto;html=1;exitX=1;exitY=0.5;exitDx=0;exitDy=0;strokeWidth=2;" edge="1" parent="1" source="KcOPCWE61-_cXgrTqT9o-4" target="KcOPCWE61-_cXgrTqT9o-5">
          <mxGeometry relative="1" as="geometry" />
        </mxCell>
        <mxCell id="KcOPCWE61-_cXgrTqT9o-4" value="&lt;font face=&quot;微软雅黑&quot; style=&quot;font-size: 24px;&quot;&gt;优化梯度方向&lt;/font&gt;" style="rounded=0;whiteSpace=wrap;html=1;strokeColor=#006633;strokeWidth=2;" vertex="1" parent="1">
          <mxGeometry x="600" y="120" width="150" height="40" as="geometry" />
        </mxCell>
        <mxCell id="KcOPCWE61-_cXgrTqT9o-5" value="&lt;font face=&quot;微软雅黑&quot; style=&quot;font-size: 24px;&quot;&gt;提升攻击效果&lt;/font&gt;" style="rounded=0;whiteSpace=wrap;html=1;strokeColor=#006633;strokeWidth=2;" vertex="1" parent="1">
          <mxGeometry x="840" y="120" width="150" height="40" as="geometry" />
        </mxCell>
        <mxCell id="KcOPCWE61-_cXgrTqT9o-11" value="&lt;font style=&quot;font-size: 24px;&quot; face=&quot;微软雅黑&quot;&gt;&lt;b&gt;路线&lt;/b&gt;&lt;/font&gt;" style="text;html=1;align=center;verticalAlign=middle;whiteSpace=wrap;rounded=0;" vertex="1" parent="1">
          <mxGeometry x="320" y="125" width="60" height="30" as="geometry" />
        </mxCell>
        <mxCell id="KcOPCWE61-_cXgrTqT9o-12" value="&lt;font style=&quot;font-size: 24px;&quot; face=&quot;微软雅黑&quot;&gt;&lt;b&gt;促进&lt;/b&gt;&lt;/font&gt;" style="text;html=1;align=center;verticalAlign=middle;whiteSpace=wrap;rounded=0;" vertex="1" parent="1">
          <mxGeometry x="490" y="125" width="60" height="30" as="geometry" />
        </mxCell>
        <mxCell id="KcOPCWE61-_cXgrTqT9o-28" style="edgeStyle=orthogonalEdgeStyle;rounded=0;orthogonalLoop=1;jettySize=auto;html=1;exitX=0.5;exitY=1;exitDx=0;exitDy=0;entryX=0;entryY=0.5;entryDx=0;entryDy=0;strokeWidth=2;" edge="1" parent="1" source="KcOPCWE61-_cXgrTqT9o-15" target="KcOPCWE61-_cXgrTqT9o-17">
          <mxGeometry relative="1" as="geometry">
            <Array as="points">
              <mxPoint x="195" y="420" />
              <mxPoint x="320" y="420" />
              <mxPoint x="320" y="340" />
            </Array>
          </mxGeometry>
        </mxCell>
        <mxCell id="KcOPCWE61-_cXgrTqT9o-15" value="&lt;font face=&quot;微软雅黑&quot; style=&quot;font-size: 24px;&quot;&gt;目标模型模拟&lt;/font&gt;" style="rounded=0;whiteSpace=wrap;html=1;strokeColor=#006633;strokeWidth=2;" vertex="1" parent="1">
          <mxGeometry x="120" y="360" width="150" height="40" as="geometry" />
        </mxCell>
        <mxCell id="KcOPCWE61-_cXgrTqT9o-30" style="edgeStyle=orthogonalEdgeStyle;rounded=0;orthogonalLoop=1;jettySize=auto;html=1;exitX=1;exitY=0.5;exitDx=0;exitDy=0;entryX=0;entryY=0.5;entryDx=0;entryDy=0;strokeWidth=2;" edge="1" parent="1" source="KcOPCWE61-_cXgrTqT9o-17" target="KcOPCWE61-_cXgrTqT9o-26">
          <mxGeometry relative="1" as="geometry">
            <Array as="points">
              <mxPoint x="560" y="340" />
              <mxPoint x="560" y="420" />
              <mxPoint x="580" y="420" />
              <mxPoint x="580" y="380" />
            </Array>
          </mxGeometry>
        </mxCell>
        <mxCell id="KcOPCWE61-_cXgrTqT9o-17" value="&lt;font face=&quot;微软雅黑&quot; style=&quot;font-size: 24px;&quot;&gt;替代模型训练&lt;/font&gt;" style="rounded=0;whiteSpace=wrap;html=1;strokeColor=#006633;strokeWidth=2;" vertex="1" parent="1">
          <mxGeometry x="360" y="320" width="150" height="40" as="geometry" />
        </mxCell>
        <mxCell id="KcOPCWE61-_cXgrTqT9o-31" style="edgeStyle=orthogonalEdgeStyle;rounded=0;orthogonalLoop=1;jettySize=auto;html=1;exitX=1;exitY=0.5;exitDx=0;exitDy=0;entryX=0;entryY=0.5;entryDx=0;entryDy=0;strokeWidth=2;" edge="1" parent="1" source="KcOPCWE61-_cXgrTqT9o-19" target="KcOPCWE61-_cXgrTqT9o-21">
          <mxGeometry relative="1" as="geometry">
            <Array as="points">
              <mxPoint x="560" y="500" />
              <mxPoint x="560" y="420" />
              <mxPoint x="580" y="420" />
              <mxPoint x="580" y="460" />
            </Array>
          </mxGeometry>
        </mxCell>
        <mxCell id="KcOPCWE61-_cXgrTqT9o-19" value="&lt;font face=&quot;微软雅黑&quot;&gt;&lt;span style=&quot;font-size: 24px;&quot;&gt;少样样本扩散&lt;/span&gt;&lt;/font&gt;" style="rounded=0;whiteSpace=wrap;html=1;strokeColor=#006633;strokeWidth=2;" vertex="1" parent="1">
          <mxGeometry x="360" y="480" width="150" height="40" as="geometry" />
        </mxCell>
        <mxCell id="KcOPCWE61-_cXgrTqT9o-33" style="edgeStyle=orthogonalEdgeStyle;rounded=0;orthogonalLoop=1;jettySize=auto;html=1;exitX=1;exitY=0.5;exitDx=0;exitDy=0;entryX=0;entryY=0.5;entryDx=0;entryDy=0;strokeWidth=2;" edge="1" parent="1" source="KcOPCWE61-_cXgrTqT9o-21" target="KcOPCWE61-_cXgrTqT9o-22">
          <mxGeometry relative="1" as="geometry" />
        </mxCell>
        <mxCell id="KcOPCWE61-_cXgrTqT9o-21" value="&lt;font face=&quot;微软雅黑&quot; style=&quot;font-size: 24px;&quot;&gt;对抗样本迁移&lt;/font&gt;" style="rounded=0;whiteSpace=wrap;html=1;strokeColor=#006633;strokeWidth=2;" vertex="1" parent="1">
          <mxGeometry x="611" y="440" width="150" height="40" as="geometry" />
        </mxCell>
        <mxCell id="KcOPCWE61-_cXgrTqT9o-22" value="&lt;font face=&quot;微软雅黑&quot; style=&quot;font-size: 24px;&quot;&gt;攻击目标模型&lt;/font&gt;" style="rounded=0;whiteSpace=wrap;html=1;strokeColor=#006633;strokeWidth=2;" vertex="1" parent="1">
          <mxGeometry x="840" y="400" width="150" height="40" as="geometry" />
        </mxCell>
        <mxCell id="KcOPCWE61-_cXgrTqT9o-23" value="&lt;font style=&quot;font-size: 24px;&quot; face=&quot;微软雅黑&quot;&gt;&lt;b&gt;路线&lt;/b&gt;&lt;/font&gt;" style="text;html=1;align=center;verticalAlign=middle;whiteSpace=wrap;rounded=0;" vertex="1" parent="1">
          <mxGeometry x="320" y="405" width="60" height="30" as="geometry" />
        </mxCell>
        <mxCell id="KcOPCWE61-_cXgrTqT9o-24" value="&lt;font style=&quot;font-size: 24px;&quot; face=&quot;微软雅黑&quot;&gt;&lt;b&gt;促进&lt;/b&gt;&lt;/font&gt;" style="text;html=1;align=center;verticalAlign=middle;whiteSpace=wrap;rounded=0;" vertex="1" parent="1">
          <mxGeometry x="490" y="405" width="60" height="30" as="geometry" />
        </mxCell>
        <mxCell id="KcOPCWE61-_cXgrTqT9o-29" style="edgeStyle=orthogonalEdgeStyle;rounded=0;orthogonalLoop=1;jettySize=auto;html=1;exitX=0.5;exitY=0;exitDx=0;exitDy=0;entryX=0;entryY=0.5;entryDx=0;entryDy=0;strokeWidth=2;" edge="1" parent="1" source="KcOPCWE61-_cXgrTqT9o-25" target="KcOPCWE61-_cXgrTqT9o-19">
          <mxGeometry relative="1" as="geometry">
            <Array as="points">
              <mxPoint x="195" y="420" />
              <mxPoint x="320" y="420" />
              <mxPoint x="320" y="500" />
            </Array>
          </mxGeometry>
        </mxCell>
        <mxCell id="KcOPCWE61-_cXgrTqT9o-25" value="&lt;font face=&quot;微软雅黑&quot; style=&quot;font-size: 24px;&quot;&gt;目标数据补全&lt;/font&gt;" style="rounded=0;whiteSpace=wrap;html=1;strokeColor=#006633;strokeWidth=2;" vertex="1" parent="1">
          <mxGeometry x="120" y="440" width="150" height="40" as="geometry" />
        </mxCell>
        <mxCell id="KcOPCWE61-_cXgrTqT9o-32" style="edgeStyle=orthogonalEdgeStyle;rounded=0;orthogonalLoop=1;jettySize=auto;html=1;exitX=1;exitY=0.5;exitDx=0;exitDy=0;entryX=0;entryY=0.5;entryDx=0;entryDy=0;strokeWidth=2;" edge="1" parent="1" source="KcOPCWE61-_cXgrTqT9o-26" target="KcOPCWE61-_cXgrTqT9o-22">
          <mxGeometry relative="1" as="geometry" />
        </mxCell>
        <mxCell id="KcOPCWE61-_cXgrTqT9o-26" value="&lt;font face=&quot;微软雅黑&quot; style=&quot;font-size: 24px;&quot;&gt;黑盒白盒转化&lt;/font&gt;" style="rounded=0;whiteSpace=wrap;html=1;strokeColor=#006633;strokeWidth=2;" vertex="1" parent="1">
          <mxGeometry x="611" y="360" width="150" height="40" as="geometry" />
        </mxCell>
        <mxCell id="KcOPCWE61-_cXgrTqT9o-49" style="edgeStyle=orthogonalEdgeStyle;rounded=0;orthogonalLoop=1;jettySize=auto;html=1;exitX=1;exitY=0.5;exitDx=0;exitDy=0;entryX=0;entryY=0.5;entryDx=0;entryDy=0;strokeWidth=2;" edge="1" parent="1" source="KcOPCWE61-_cXgrTqT9o-35" target="KcOPCWE61-_cXgrTqT9o-39">
          <mxGeometry relative="1" as="geometry" />
        </mxCell>
        <mxCell id="KcOPCWE61-_cXgrTqT9o-35" value="&lt;font face=&quot;微软雅黑&quot; style=&quot;font-size: 24px;&quot;&gt;干净样本数据&lt;/font&gt;" style="rounded=0;whiteSpace=wrap;html=1;strokeColor=#006633;strokeWidth=2;" vertex="1" parent="1">
          <mxGeometry x="120" y="600" width="150" height="40" as="geometry" />
        </mxCell>
        <mxCell id="KcOPCWE61-_cXgrTqT9o-51" style="edgeStyle=orthogonalEdgeStyle;rounded=0;orthogonalLoop=1;jettySize=auto;html=1;exitX=1;exitY=0.5;exitDx=0;exitDy=0;entryX=0;entryY=0.5;entryDx=0;entryDy=0;strokeWidth=2;" edge="1" parent="1" source="KcOPCWE61-_cXgrTqT9o-39" target="KcOPCWE61-_cXgrTqT9o-48">
          <mxGeometry relative="1" as="geometry" />
        </mxCell>
        <mxCell id="KcOPCWE61-_cXgrTqT9o-53" style="edgeStyle=orthogonalEdgeStyle;rounded=0;orthogonalLoop=1;jettySize=auto;html=1;exitX=1;exitY=0.5;exitDx=0;exitDy=0;entryX=0;entryY=0.5;entryDx=0;entryDy=0;strokeWidth=2;" edge="1" parent="1" source="KcOPCWE61-_cXgrTqT9o-39" target="KcOPCWE61-_cXgrTqT9o-41">
          <mxGeometry relative="1" as="geometry" />
        </mxCell>
        <mxCell id="KcOPCWE61-_cXgrTqT9o-39" value="&lt;font face=&quot;微软雅黑&quot;&gt;&lt;span style=&quot;font-size: 24px;&quot;&gt;语义特征计算&lt;/span&gt;&lt;/font&gt;" style="rounded=0;whiteSpace=wrap;html=1;strokeColor=#006633;strokeWidth=2;" vertex="1" parent="1">
          <mxGeometry x="360" y="680" width="150" height="40" as="geometry" />
        </mxCell>
        <mxCell id="KcOPCWE61-_cXgrTqT9o-55" style="edgeStyle=orthogonalEdgeStyle;rounded=0;orthogonalLoop=1;jettySize=auto;html=1;exitX=1;exitY=0.5;exitDx=0;exitDy=0;entryX=0;entryY=0.5;entryDx=0;entryDy=0;strokeWidth=2;" edge="1" parent="1" source="KcOPCWE61-_cXgrTqT9o-41" target="KcOPCWE61-_cXgrTqT9o-42">
          <mxGeometry relative="1" as="geometry" />
        </mxCell>
        <mxCell id="KcOPCWE61-_cXgrTqT9o-41" value="&lt;font face=&quot;微软雅黑&quot; style=&quot;font-size: 24px;&quot;&gt;异义表示疏远&lt;/font&gt;" style="rounded=0;whiteSpace=wrap;html=1;strokeColor=#006633;strokeWidth=2;" vertex="1" parent="1">
          <mxGeometry x="600" y="760" width="150" height="40" as="geometry" />
        </mxCell>
        <mxCell id="KcOPCWE61-_cXgrTqT9o-42" value="&lt;font face=&quot;微软雅黑&quot; style=&quot;font-size: 24px;&quot;&gt;提升防御效果&lt;/font&gt;" style="rounded=0;whiteSpace=wrap;html=1;strokeColor=#006633;strokeWidth=2;" vertex="1" parent="1">
          <mxGeometry x="840" y="680" width="150" height="40" as="geometry" />
        </mxCell>
        <mxCell id="KcOPCWE61-_cXgrTqT9o-50" style="edgeStyle=orthogonalEdgeStyle;rounded=0;orthogonalLoop=1;jettySize=auto;html=1;exitX=1;exitY=0.5;exitDx=0;exitDy=0;entryX=0;entryY=0.5;entryDx=0;entryDy=0;strokeWidth=2;" edge="1" parent="1" source="KcOPCWE61-_cXgrTqT9o-46" target="KcOPCWE61-_cXgrTqT9o-39">
          <mxGeometry relative="1" as="geometry" />
        </mxCell>
        <mxCell id="KcOPCWE61-_cXgrTqT9o-46" value="&lt;font face=&quot;微软雅黑&quot; style=&quot;font-size: 24px;&quot;&gt;对抗样本数据&lt;/font&gt;" style="rounded=0;whiteSpace=wrap;html=1;strokeColor=#006633;strokeWidth=2;" vertex="1" parent="1">
          <mxGeometry x="120" y="760" width="150" height="40" as="geometry" />
        </mxCell>
        <mxCell id="KcOPCWE61-_cXgrTqT9o-54" style="edgeStyle=orthogonalEdgeStyle;rounded=0;orthogonalLoop=1;jettySize=auto;html=1;exitX=1;exitY=0.5;exitDx=0;exitDy=0;entryX=0;entryY=0.5;entryDx=0;entryDy=0;strokeWidth=2;" edge="1" parent="1" source="KcOPCWE61-_cXgrTqT9o-48" target="KcOPCWE61-_cXgrTqT9o-42">
          <mxGeometry relative="1" as="geometry" />
        </mxCell>
        <mxCell id="KcOPCWE61-_cXgrTqT9o-48" value="&lt;font face=&quot;微软雅黑&quot;&gt;&lt;span style=&quot;font-size: 24px;&quot;&gt;近义表示聚集&lt;/span&gt;&lt;/font&gt;" style="rounded=0;whiteSpace=wrap;html=1;strokeColor=#006633;strokeWidth=2;" vertex="1" parent="1">
          <mxGeometry x="600" y="600" width="150" height="40" as="geometry" />
        </mxCell>
        <mxCell id="KcOPCWE61-_cXgrTqT9o-56" style="edgeStyle=orthogonalEdgeStyle;rounded=0;orthogonalLoop=1;jettySize=auto;html=1;exitX=1;exitY=0.5;exitDx=0;exitDy=0;entryX=0;entryY=0.5;entryDx=0;entryDy=0;strokeWidth=2;" edge="1" parent="1" source="KcOPCWE61-_cXgrTqT9o-57" target="KcOPCWE61-_cXgrTqT9o-60">
          <mxGeometry relative="1" as="geometry" />
        </mxCell>
        <mxCell id="KcOPCWE61-_cXgrTqT9o-57" value="&lt;font face=&quot;微软雅黑&quot; style=&quot;font-size: 24px;&quot;&gt;干净样本数据&lt;/font&gt;" style="rounded=0;whiteSpace=wrap;html=1;strokeColor=#006633;strokeWidth=2;" vertex="1" parent="1">
          <mxGeometry x="120" y="880" width="150" height="40" as="geometry" />
        </mxCell>
        <mxCell id="KcOPCWE61-_cXgrTqT9o-58" style="edgeStyle=orthogonalEdgeStyle;rounded=0;orthogonalLoop=1;jettySize=auto;html=1;exitX=1;exitY=0.5;exitDx=0;exitDy=0;entryX=0;entryY=0.5;entryDx=0;entryDy=0;strokeWidth=2;" edge="1" parent="1" source="KcOPCWE61-_cXgrTqT9o-60" target="KcOPCWE61-_cXgrTqT9o-67">
          <mxGeometry relative="1" as="geometry" />
        </mxCell>
        <mxCell id="KcOPCWE61-_cXgrTqT9o-59" style="edgeStyle=orthogonalEdgeStyle;rounded=0;orthogonalLoop=1;jettySize=auto;html=1;exitX=1;exitY=0.5;exitDx=0;exitDy=0;entryX=0;entryY=0.5;entryDx=0;entryDy=0;strokeWidth=2;" edge="1" parent="1" source="KcOPCWE61-_cXgrTqT9o-60" target="KcOPCWE61-_cXgrTqT9o-62">
          <mxGeometry relative="1" as="geometry" />
        </mxCell>
        <mxCell id="KcOPCWE61-_cXgrTqT9o-60" value="&lt;font face=&quot;微软雅黑&quot;&gt;&lt;span style=&quot;font-size: 24px;&quot;&gt;嵌入特征对比&lt;/span&gt;&lt;/font&gt;" style="rounded=0;whiteSpace=wrap;html=1;strokeColor=#006633;strokeWidth=2;" vertex="1" parent="1">
          <mxGeometry x="360" y="960" width="150" height="40" as="geometry" />
        </mxCell>
        <mxCell id="KcOPCWE61-_cXgrTqT9o-61" style="edgeStyle=orthogonalEdgeStyle;rounded=0;orthogonalLoop=1;jettySize=auto;html=1;exitX=1;exitY=0.5;exitDx=0;exitDy=0;entryX=0;entryY=0.5;entryDx=0;entryDy=0;strokeWidth=2;" edge="1" parent="1" source="KcOPCWE61-_cXgrTqT9o-62" target="KcOPCWE61-_cXgrTqT9o-63">
          <mxGeometry relative="1" as="geometry" />
        </mxCell>
        <mxCell id="KcOPCWE61-_cXgrTqT9o-62" value="&lt;font face=&quot;微软雅黑&quot; style=&quot;font-size: 24px;&quot;&gt;阈值加权判别&lt;/font&gt;" style="rounded=0;whiteSpace=wrap;html=1;strokeColor=#006633;strokeWidth=2;" vertex="1" parent="1">
          <mxGeometry x="600" y="1040" width="150" height="40" as="geometry" />
        </mxCell>
        <mxCell id="KcOPCWE61-_cXgrTqT9o-63" value="&lt;font face=&quot;微软雅黑&quot; style=&quot;font-size: 24px;&quot;&gt;对抗训练防御&lt;/font&gt;" style="rounded=0;whiteSpace=wrap;html=1;strokeColor=#006633;strokeWidth=2;" vertex="1" parent="1">
          <mxGeometry x="840" y="960" width="150" height="40" as="geometry" />
        </mxCell>
        <mxCell id="KcOPCWE61-_cXgrTqT9o-64" style="edgeStyle=orthogonalEdgeStyle;rounded=0;orthogonalLoop=1;jettySize=auto;html=1;exitX=1;exitY=0.5;exitDx=0;exitDy=0;entryX=0;entryY=0.5;entryDx=0;entryDy=0;strokeWidth=2;" edge="1" parent="1" source="KcOPCWE61-_cXgrTqT9o-65" target="KcOPCWE61-_cXgrTqT9o-60">
          <mxGeometry relative="1" as="geometry" />
        </mxCell>
        <mxCell id="KcOPCWE61-_cXgrTqT9o-65" value="&lt;font face=&quot;微软雅黑&quot; style=&quot;font-size: 24px;&quot;&gt;对抗样本数据&lt;/font&gt;" style="rounded=0;whiteSpace=wrap;html=1;strokeColor=#006633;strokeWidth=2;" vertex="1" parent="1">
          <mxGeometry x="120" y="1040" width="150" height="40" as="geometry" />
        </mxCell>
        <mxCell id="KcOPCWE61-_cXgrTqT9o-66" style="edgeStyle=orthogonalEdgeStyle;rounded=0;orthogonalLoop=1;jettySize=auto;html=1;exitX=1;exitY=0.5;exitDx=0;exitDy=0;entryX=0;entryY=0.5;entryDx=0;entryDy=0;strokeWidth=2;" edge="1" parent="1" source="KcOPCWE61-_cXgrTqT9o-67" target="KcOPCWE61-_cXgrTqT9o-63">
          <mxGeometry relative="1" as="geometry" />
        </mxCell>
        <mxCell id="KcOPCWE61-_cXgrTqT9o-67" value="&lt;font face=&quot;微软雅黑&quot;&gt;&lt;span style=&quot;font-size: 24px;&quot;&gt;未知已知转化&lt;/span&gt;&lt;/font&gt;" style="rounded=0;whiteSpace=wrap;html=1;strokeColor=#006633;strokeWidth=2;" vertex="1" parent="1">
          <mxGeometry x="600" y="880" width="150" height="40" as="geometry" />
        </mxCell>
      </root>
    </mxGraphModel>
  </diagram>
</mxfile>
